<?xml version="1.0" encoding="utf-8"?><svg id="Layer_1" data-name="Layer 1" xmlns="http://www.w3.org/2000/svg" viewBox="0 0 498.35 511.88"><style type="text/css">
	path { fill: #FFFFFF; }
</style><path d="M445.24,151.21H368.75c2.08-12,9.48-18.71,24.5-26.34l14.09-7.16c25.19-12.94,38.59-27.5,38.59-51.31q0-22.53-17.33-35.35c-11.32-8.55-25.18-12.71-41.13-12.71a63.78,63.78,0,0,0-34.89,9.94c-10.4,6.47-18.26,14.79-23.11,25.18l22.18,22.19c8.55-17.33,21-25.88,37.44-25.88,13.86,0,22.41,7.16,22.41,17.1,0,8.32-4.15,15.25-20.1,23.34l-9,4.39c-19.65,9.93-33.28,21.26-41.14,34.2-7.85,12.71-11.78,29.12-11.78,48.76v5.31H445.24V151.21ZM435,219.44H308.36L245,329.13H371.69L435,438.82l63.33-109.69ZM255.94,402.25c-80.64,0-146.25-65.61-146.25-146.25S175.3,109.75,255.94,109.75L306,5A257.24,257.24,0,0,0,255.94.06C114.59.06,0,114.65,0,256S114.59,511.94,255.94,511.94a254.78,254.78,0,0,0,150.73-49.09l-55.44-96A145.59,145.59,0,0,1,255.94,402.25Z" transform="translate(0 -0.06)"/></svg>