<?xml version="1.0" encoding="utf-8"?>
<!-- Generator: Adobe Illustrator 25.1.0, SVG Export Plug-In . SVG Version: 6.00 Build 0)  -->
<svg version="1.1" id="Layer_1" xmlns="http://www.w3.org/2000/svg" xmlns:xlink="http://www.w3.org/1999/xlink" x="0px" y="0px"
	 viewBox="0 0 366 400" style="enable-background:new 0 0 366 400;" xml:space="preserve">
<style type="text/css">
	path { fill: #FFFFFF; }
</style>
<path class="st0" d="M10.5,392.6l174.7-174.2l61.6,61.4L39.1,394.9c-7.9,4.4-17.6,4.3-25.4-0.2C13.7,394.8,10.5,392.6,10.5,392.6z
	 M167.6,200.8L1,366.9V34.7C1,34.7,167.6,200.8,167.6,200.8z M271.7,132.2l81.4,45.1c8,4.4,13,12.8,13,21.8c0,9-5,17.4-13,21.8
	l-83.6,46.3l-66.6-66.4C202.8,200.8,271.7,132.2,271.7,132.2z M8.6,7.2c1.5-1.4,3.2-2.7,5-3.8c7.8-4.5,17.5-4.6,25.4-0.2L249,119.6
	l-63.8,63.6C185.2,183.2,8.6,7.2,8.6,7.2z"/>
</svg>
