<svg width="400" height="132" viewBox="0 0 400 132" fill="none" xmlns="http://www.w3.org/2000/svg">
<g clip-path="url(#clip0_628_20901)">
<path d="M0 131.737C0 87.8204 0 43.9162 0 0C133.329 0 266.671 0 400 0C400 43.9162 400 87.8204 400 131.737C266.671 131.737 133.329 131.737 0 131.737ZM283.569 37.485C282.048 32.3832 281.03 28.9581 280.012 25.5329C277.904 18.4551 277.928 18.5269 270.91 21.006C269.461 21.521 267.76 21.4132 266.18 21.4132C243.234 21.4371 220.299 21.485 197.353 21.3533C194.647 21.3413 191.784 20.7545 189.293 19.7245C185.94 18.3353 184.132 18.7784 183.114 22.479C181.689 27.6527 179.772 32.7066 178.419 37.9042C177.94 39.7365 178.503 41.8443 178.587 43.8323C180.479 42.8144 183.138 42.2874 184.156 40.7066C191.138 29.8443 201.377 26.7545 213.545 27.1617C218.467 27.3293 220.659 28.6946 220.587 34.0599C220.299 54.8024 220.479 75.5449 220.299 96.2994C220.228 104.443 219.689 104.695 211.533 106.036C209.916 106.299 208.491 107.737 206.97 108.635C208.611 109.545 210.228 111.234 211.88 111.257C224.443 111.485 237.018 111.497 249.581 111.257C251.449 111.222 253.293 109.581 255.15 108.683C253.425 107.749 251.76 106.156 249.976 106.012C245.138 105.617 241.964 104.096 241.952 98.5868C241.928 76.4431 241.832 54.3114 241.737 32.1677C241.725 29.018 243.03 27.485 246.311 27.3293C259.006 26.7066 270.599 28.0958 277.832 40.7545C280.826 45.988 285.904 45.9521 289.257 40.8024C296.443 29.7605 306.814 26.6946 319.198 27.2216C323.976 27.4251 325.808 28.9701 325.748 33.9281C325.509 54.6707 325.665 75.4132 325.557 96.1677C325.509 104.108 324.587 104.814 316.838 106.096C315.15 106.371 313.689 108.06 312.12 109.09C313.88 109.868 315.617 111.281 317.389 111.317C329.952 111.509 342.527 111.521 355.09 111.317C356.85 111.293 358.587 109.784 360.335 108.97C358.683 107.976 357.066 106.192 355.365 106.12C349.713 105.88 346.97 103.401 346.958 97.6766C346.898 75.9401 346.743 54.2036 346.635 32.4671C346.611 28.6946 348.659 27.4491 352.287 27.2934C364.886 26.7425 376.323 28.503 383.006 41.0539C383.281 41.5689 383.617 42.2635 384.096 42.4431C385.473 42.9701 386.934 43.2695 388.359 43.6647C388.659 42.3952 389.473 40.994 389.174 39.8802C387.557 33.7245 385.892 27.5569 383.713 21.5808C383.269 20.3832 380.515 19.2695 378.91 19.4012C375.281 19.6766 371.713 21.3653 368.108 21.3892C346.563 21.5808 325.018 21.5329 303.473 21.3772C300.383 21.3533 297.138 20.7305 294.24 19.6647C290.743 18.3713 289.15 19.0299 288.24 22.7186C287.15 27.1138 285.533 31.3772 283.557 37.509L283.569 37.485ZM89.2455 68.994C89.2455 78.7425 89.2695 87.8802 89.2455 97.0299C89.2216 102.671 86.994 106.012 80.7066 105.976C79.018 105.976 77.3174 107.784 75.6287 108.778C77.3653 109.605 79.0898 111.138 80.8503 111.162C93.4132 111.365 105.988 111.365 118.551 111.174C120.335 111.15 122.096 109.737 123.868 108.97C122.275 107.928 120.695 106 119.102 106C112.515 106 110.371 102.431 110.371 96.5629C110.383 76.4192 110.287 56.2635 110.431 36.1198C110.479 28.6347 112.132 27.3413 119.581 26.4431C121.341 26.2275 122.922 24.6347 124.599 23.6647C122.922 22.8024 121.246 21.2335 119.557 21.2096C106.994 21.006 94.4311 21.018 81.8683 21.2096C80.0479 21.2335 78.2515 22.515 76.4431 23.2096C78.1677 24.3234 79.8323 26.2994 81.6168 26.3952C86.2156 26.6467 88.9102 28.4551 88.9581 33.1377C89.0659 42.6347 88.994 52.1317 88.994 61.8204H48.0599C48.0599 52.8862 47.9521 44.3353 48.0958 35.8084C48.2156 28.3832 49.2455 27.5689 56.6467 26.4431C58.2275 26.2036 59.5928 24.5988 61.0659 23.6168C59.5808 22.7904 58.0958 21.2575 56.5988 21.2335C43.6407 21.0419 30.6707 21.0419 17.7126 21.2216C16.1557 21.2455 14.6108 22.6347 13.0539 23.3772C14.5868 24.4431 16.1317 26.4192 17.6527 26.4072C24.012 26.3473 26.8743 29.4012 26.8862 35.4611C26.9102 56 26.8503 76.5389 26.8503 97.0778C26.8503 102.826 24.5389 105.988 18.2874 105.964C16.6108 105.964 14.9341 107.796 13.2575 108.778C14.994 109.617 16.7305 111.138 18.479 111.162C31.0419 111.377 43.6168 111.365 56.1796 111.186C57.988 111.162 59.7725 109.796 61.5689 109.054C59.8084 107.964 58.1317 106.12 56.2874 105.928C52.0599 105.497 48.515 104.443 48.3952 99.6407C48.1557 89.5449 48.3234 79.4371 48.3234 69.018H89.2575L89.2455 68.994ZM141.365 66.5988H141.401C141.401 76.5629 141.257 86.5389 141.461 96.503C141.581 102.551 139.581 105.964 132.958 105.988C131.317 105.988 129.677 107.832 128.048 108.838C129.784 109.653 131.521 111.138 133.281 111.174C145.641 111.413 158 111.449 170.359 111.269C172.323 111.246 174.263 109.796 176.228 109.006C174.455 107.94 172.719 106.048 170.91 105.964C164.982 105.713 162.898 102.707 162.922 97.1737C162.994 76.4431 163.006 55.7126 162.934 34.9701C162.91 29.1856 165.713 26.7904 171.305 26.4311C173.269 26.3114 175.126 24.7066 177.042 23.7725C174.97 22.8862 172.922 21.2575 170.826 21.2216C158.275 20.982 145.713 20.982 133.162 21.2096C131.246 21.2455 129.353 22.8024 127.449 23.6647C129.305 24.6347 131.114 26.3234 133.03 26.4311C138.623 26.7545 141.473 29.1138 141.425 34.9102C141.317 45.4731 141.401 56.0359 141.401 66.5988H141.365Z" fill="#161616"/>
<path d="M283.569 37.485C285.545 31.3533 287.174 27.0898 288.252 22.6946C289.162 19.006 290.755 18.3473 294.252 19.6407C297.162 20.7066 300.395 21.3413 303.485 21.3533C325.03 21.509 346.575 21.5569 368.12 21.3653C371.725 21.3293 375.293 19.6527 378.922 19.3772C380.515 19.2575 383.282 20.3593 383.725 21.5569C385.904 27.5329 387.569 33.6886 389.186 39.8563C389.473 40.97 388.671 42.3712 388.371 43.6407C386.946 43.2455 385.485 42.9461 384.108 42.4191C383.629 42.2395 383.294 41.5449 383.018 41.0299C376.335 28.479 364.898 26.7186 352.3 27.2695C348.671 27.4251 346.623 28.6706 346.647 32.4431C346.755 54.1796 346.898 75.9162 346.97 97.6527C346.982 103.365 349.725 105.856 355.377 106.096C357.066 106.168 358.695 107.94 360.347 108.946C358.599 109.76 356.862 111.269 355.102 111.293C342.539 111.497 329.964 111.497 317.401 111.293C315.629 111.269 313.892 109.844 312.132 109.066C313.701 108.024 315.162 106.347 316.85 106.072C324.599 104.79 325.521 104.084 325.569 96.1437C325.677 75.4012 325.521 54.6467 325.761 33.9042C325.82 28.9461 323.976 27.4012 319.21 27.1976C306.826 26.6706 296.455 29.7365 289.27 40.7784C285.916 45.9281 280.838 45.9641 277.844 40.7305C270.611 28.0838 259.03 26.6826 246.323 27.3054C243.042 27.4611 241.737 28.994 241.749 32.1437C241.844 54.2874 241.94 76.4192 241.964 98.5629C241.964 104.072 245.15 105.593 249.988 105.988C251.773 106.132 253.449 107.725 255.162 108.659C253.305 109.557 251.461 111.198 249.593 111.234C237.03 111.461 224.455 111.449 211.892 111.234C210.24 111.21 208.623 109.521 206.982 108.611C208.503 107.713 209.928 106.287 211.545 106.012C219.689 104.659 220.24 104.419 220.311 96.2754C220.479 75.5329 220.311 54.7784 220.599 34.0359C220.671 28.6706 218.479 27.3054 213.557 27.1377C201.377 26.7186 191.15 29.8204 184.168 40.6826C183.15 42.2635 180.503 42.7904 178.599 43.8084C178.515 41.8204 177.952 39.7245 178.431 37.8802C179.785 32.6826 181.701 27.6407 183.126 22.4551C184.144 18.7545 185.94 18.3233 189.305 19.7006C191.808 20.7305 194.659 21.3174 197.365 21.3293C220.299 21.4491 243.246 21.4132 266.192 21.3892C267.773 21.3892 269.473 21.485 270.922 20.982C277.928 18.503 277.904 18.4311 280.024 25.509C281.042 28.9341 282.06 32.3593 283.581 37.4611L283.569 37.485Z" fill="white"/>
<path d="M89.2453 68.994H48.3232C48.3232 79.4132 48.1555 89.521 48.395 99.6168C48.5148 104.419 52.0597 105.485 56.2872 105.904C58.1316 106.096 59.8202 107.94 61.5687 109.03C59.7723 109.772 57.9878 111.138 56.1795 111.162C43.6166 111.341 31.0417 111.353 18.4789 111.138C16.7304 111.114 14.9938 109.581 13.2573 108.754C14.934 107.76 16.6106 105.928 18.2872 105.94C24.5268 105.976 26.8501 102.802 26.8501 97.0539C26.8501 76.515 26.898 55.9761 26.886 35.4371C26.886 29.3773 24.0118 26.3234 17.6525 26.3832C16.1316 26.3952 14.5866 24.4192 13.0537 23.3533C14.6106 22.5988 16.1555 21.2096 17.7124 21.1976C30.6705 21.018 43.6405 21.018 56.5986 21.2096C58.0956 21.2335 59.5807 22.7545 61.0657 23.5928C59.5926 24.5749 58.2274 26.1797 56.6465 26.4192C49.2453 27.5449 48.2154 28.3713 48.0956 35.7844C47.9519 44.3234 48.0597 52.8623 48.0597 61.7964H88.9699C88.9699 52.1078 89.0537 42.6108 88.934 33.1138C88.8741 28.4312 86.1914 26.6347 81.5926 26.3713C79.8202 26.2755 78.1435 24.3114 76.419 23.1856C78.2274 22.491 80.0357 21.2096 81.8441 21.1856C94.407 21.006 106.97 20.994 119.533 21.1856C121.233 21.2096 122.898 22.7904 124.575 23.6407C122.91 24.5988 121.317 26.2036 119.557 26.4192C112.108 27.3294 110.467 28.6228 110.407 36.0958C110.275 56.2395 110.371 76.3952 110.347 96.5389C110.347 102.407 112.479 105.976 119.078 105.976C120.658 105.976 122.251 107.904 123.844 108.946C122.072 109.713 120.311 111.126 118.527 111.15C105.964 111.341 93.389 111.341 80.8262 111.138C79.0777 111.114 77.3531 109.581 75.6046 108.754C77.2932 107.772 78.9938 105.952 80.6825 105.952C86.9699 105.988 89.1974 102.647 89.2214 97.006C89.2453 87.8563 89.2214 78.7186 89.2214 68.9701L89.2453 68.994Z" fill="white"/>
<path d="M141.365 66.5988C141.365 56.0359 141.293 45.4731 141.389 34.9102C141.449 29.1138 138.599 26.7545 132.994 26.4311C131.09 26.3234 129.269 24.6347 127.413 23.6647C129.317 22.8144 131.209 21.2455 133.126 21.2096C145.677 20.994 158.239 20.982 170.79 21.2216C172.874 21.2575 174.934 22.8862 177.006 23.7725C175.102 24.7066 173.233 26.3114 171.269 26.4311C165.677 26.7904 162.874 29.1856 162.898 34.9701C162.97 55.7006 162.958 76.4312 162.886 97.1737C162.862 102.695 164.946 105.713 170.874 105.964C172.683 106.036 174.419 107.94 176.192 109.006C174.239 109.796 172.299 111.246 170.323 111.269C157.964 111.449 145.605 111.413 133.245 111.174C131.485 111.138 129.76 109.653 128.012 108.838C129.653 107.844 131.281 106 132.922 105.988C139.533 105.964 141.545 102.551 141.425 96.503C141.221 86.5389 141.365 76.5749 141.365 66.5988H141.329H141.365Z" fill="white"/>
</g>
<defs>
<clipPath id="clip0_628_20901">
<rect width="400" height="131.737" fill="white"/>
</clipPath>
</defs>
</svg>
