<?xml version="1.0" encoding="utf-8"?>
<!-- Generator: Adobe Illustrator 23.0.4, SVG Export Plug-In . SVG Version: 6.00 Build 0)  -->
<svg version="1.1" id="Layer_1" xmlns="http://www.w3.org/2000/svg" xmlns:xlink="http://www.w3.org/1999/xlink" x="0px" y="0px"
	 viewBox="0 0 1480 166" style="enable-background:new 0 0 1480 166;" xml:space="preserve">
<style type="text/css">
	.st0{fill-rule:evenodd;clip-rule:evenodd;fill:url(#Fill-1_1_);}
	.st1{fill-rule:evenodd;clip-rule:evenodd;fill:#FFF;}
</style>
<g id="Normal-Registered">
	
		<linearGradient id="Fill-1_1_" gradientUnits="userSpaceOnUse" x1="627.7492" y1="191.5981" x2="627.7492" y2="190.6869" gradientTransform="matrix(133.03 0 0 -109.4733 -82096.0078 20995.1035)">
		<stop  offset="0" style="stop-color:#F2C069"/>
		<stop  offset="1" style="stop-color:#EB8F3B"/>
	</linearGradient>
	<path id="Fill-1" class="st0" d="M1347,14.4c0-7.8,6.4-14.2,14.2-14.2h104.7c7.8,0,14.2,6.4,14.2,14.2v51.4
		c0,7.8-6.4,14.2-14.2,14.2H1455c-7.8,0-19.7,3.1-26.6,6.9l-38,21.1c-6.8,3.8-9.7,1.1-6.5-6l4.4-9.6c3.2-7.1-0.5-12.9-8.3-12.9
		h-18.9c-7.8,0-14.2-6.4-14.2-14.2V14.4"/>
	<path id="Fill-21" class="st1" d="M1347.1,148.1c0.8,0,1.5-0.1,2.1-0.4c0.5-0.3,0.8-0.8,0.8-1.8c0-0.5-0.1-0.9-0.3-1.1
		c-0.2-0.3-0.5-0.5-0.8-0.6c-0.3-0.1-0.7-0.2-1.1-0.3c-0.4,0-0.8-0.1-1.1-0.1l-2.5,0v4.3L1347.1,148.1z M1347.1,140.8
		c2.2,0,3.9,0.5,5,1.4c1.1,0.9,1.7,2.3,1.7,4c0,1.5-0.4,2.6-1.2,3.4c-0.8,0.8-1.8,1.3-3,1.4l4.3,7.1l-4.2,0l-4.1-7l-1.4,0l0,7
		l-3.8,0l0-17.3L1347.1,140.8z M1336.3,153.9c0.6,1.4,1.3,2.6,2.3,3.7c1,1,2.2,1.9,3.5,2.5c1.4,0.6,2.9,0.9,4.5,0.9
		c1.6,0,3.1-0.3,4.5-0.9c1.4-0.6,2.6-1.4,3.5-2.5c1-1,1.8-2.3,2.3-3.7c0.6-1.4,0.8-2.9,0.8-4.4c0-1.6-0.3-3-0.8-4.4
		c-0.6-1.4-1.3-2.6-2.3-3.7c-1-1-2.2-1.9-3.6-2.5c-1.4-0.6-2.9-0.9-4.5-0.9s-3.1,0.3-4.5,0.9c-1.4,0.6-2.6,1.4-3.6,2.5
		c-1,1-1.8,2.3-2.3,3.7c-0.6,1.4-0.8,2.9-0.8,4.4C1335.4,151.1,1335.7,152.5,1336.3,153.9z M1331.8,143.2c0.8-2,2-3.7,3.4-5.1
		c1.4-1.5,3.1-2.6,5.1-3.4c1.9-0.8,4-1.3,6.3-1.3c2.2,0,4.3,0.4,6.3,1.2c1.9,0.8,3.7,2,5.1,3.4c1.5,1.5,2.6,3.2,3.4,5.1
		c0.8,1.9,1.3,4,1.3,6.3s-0.4,4.3-1.2,6.3c-0.8,2-2,3.6-3.4,5.1c-1.5,1.4-3.2,2.6-5.1,3.4c-1.9,0.8-4,1.2-6.3,1.2
		c-2.2,0-4.3-0.4-6.3-1.2c-2-0.8-3.7-1.9-5.1-3.4c-1.5-1.4-2.6-3.1-3.5-5.1c-0.8-1.9-1.3-4-1.3-6.3
		C1330.6,147.3,1331,145.2,1331.8,143.2z"/>
	<path id="Fill-19" class="st1" d="M1294.1,101.4H1271c-1.7,0-2.3-1.1-2.3-2.3l0.2-3c0.4-6.1,6.2-10.6,13.8-10.6
		c7.4,0,13.3,4.4,13.8,10.4l0.2,3C1296.7,100.3,1296.2,101.4,1294.1,101.4z M1281.8,61.3c-25,0-42.8,18-42.8,38.6v27.3
		c0,22.9,17,38.8,42.8,38.8c14,0,24.1-4.9,31.3-11.9c3.4-3.4,6.1-7.4,8.5-11.4c1.3-2.1,0.6-4.5-0.6-5.1l-21-10.6
		c-1.3-0.6-2.6-0.2-3.2,1.7c-2.9,7.4-7.8,10.8-15,10.8c-7.8,0-13.4-5.3-13.4-12.1v-4.7c0-1.5,0.6-2.3,2.5-2.3h51.1
		c1.3,0,2.1-0.6,2.1-2.1V99.9C1324.2,79.5,1306.6,61.3,1281.8,61.3z"/>
	<path id="Fill-18" class="st1" d="M1190.3,87.4c6.6,0,11.4,4.2,15,12.7c0.6,1.5,1.7,1.9,3.2,1.3l20.8-9.3c1.3-0.6,1.7-1.9,1.1-3.6
		c-1.9-4.4-4-8.5-6.8-11.9c-7-9.3-17.4-14.6-33.5-14.6c-26.3,0-42.2,15.9-42.2,38.8v25.8c0,22.9,15.9,38.6,42.2,38.6
		c14.8,0,24.6-4.4,31.6-12.3c3.6-4,6.4-8.9,8.7-14.4c0.6-1.7,0.2-2.8-1.1-3.4l-20.8-9.5c-1.5-0.6-2.5-0.2-3.2,1.3
		c-3.6,8.5-8.5,12.9-15,12.9c-7.8,0-12.9-5.5-12.9-12.3V99.7C1177.3,92.9,1182.4,87.4,1190.3,87.4"/>
	<path id="Fill-17" class="st1" d="M1129.2,64.3h-25.2c-1.5,0-2.1,0.6-2.1,2.1v94.3c0,1.5,0.6,2.1,2.1,2.1h25.2
		c1.2,0,1.9-0.6,1.9-2.1V66.4C1131.1,64.9,1130.2,64.3,1129.2,64.3"/>
	<path id="Fill-20" class="st1" d="M1116.4,22.7c-8.2,0-14.9,6.7-14.9,14.9c0,8.2,6.7,14.9,14.9,14.9c8.2,0,14.9-6.7,14.9-14.9
		C1131.3,29.4,1124.7,22.7,1116.4,22.7"/>
	<path id="Fill-16" class="st1" d="M1088.6,64.3h-26.9c-1.1,0-1.9,0.6-2.3,1.7l-15.9,45.6c-0.8,2.3-2.1,7.8-2.5,10.6h-0.6
		c-0.4-2.8-1.5-7.8-2.5-10.6l-16.5-45.8c-0.4-1.1-1-1.5-2.1-1.5h-26.9c-1.9,0-2.5,1.3-1.9,3l37.9,94.1c0.4,1,1.2,1.5,2.1,1.5h19.7
		c1.1,0,1.9-0.4,2.3-1.5l38.1-94.1C1091.2,65.6,1090.6,64.3,1088.6,64.3"/>
	<path id="Fill-15" class="st1" d="M949.7,126.2c0,7-5.7,12.3-13.1,12.3c-7.6,0-12.9-5.3-12.9-12.3v-25.4c0-6.8,5.3-11.9,12.9-11.9
		c7.6,0,13.1,5.1,13.1,11.9V126.2z M976.8,29.3h-25c-1,0-2.1,0.6-2.1,2.1v29.5c0,3.2,0.6,9.3,0.6,9.3c-4.2-3.8-11.2-5.9-16.3-5.9
		c-23.1,0-39.8,15.5-39.8,38.6v21.4c0,24.6,14.4,38.6,40.3,38.6c5.9,0,12.9-1.9,17.4-5.7c1.3-1.1,2.8-0.7,2.8,1v3.2
		c0,0.8,0.6,1.5,1.7,1.5h20.5c1.3,0,2.1-0.6,2.1-2.1V31.4C978.9,30,978.1,29.3,976.8,29.3z"/>
	<path id="Fill-14" class="st1" d="M839.1,117.3h-12.9c-2.1,0-3-1.3-2.5-2.5l4.4-17.2c2.1-7.8,3.8-17.2,4.2-22.7h0.9
		c0.4,5.5,1.7,14.8,3.8,22.7l4.5,17.2C841.9,116,841,117.3,839.1,117.3z M844.2,30.8c-0.4-1.1-1.1-1.5-2.1-1.5h-18.9
		c-1.3,0-1.7,0.4-2.1,1.5l-41.7,129.3c-0.6,1.7,0.2,2.8,2.1,2.8h26.7c1.1,0,1.5-0.4,1.9-1.5l6.1-19.3c0.4-1.1,0.8-1.3,2.3-1.3h28
		c1.5,0,1.9,0.2,2.3,1.3l5.9,19.3c0.4,1,0.9,1.5,2.1,1.5h26.9c2.1,0,2.8-1.1,2.1-2.8L844.2,30.8z"/>
	<path id="Fill-13" class="st1" d="M703.3,101.4h-23.1c-1.7,0-2.3-1.1-2.3-2.3l0.2-3c0.4-6.1,6.2-10.6,13.8-10.6
		c7.4,0,13.4,4.4,13.8,10.4l0.2,3C705.8,100.3,705.4,101.4,703.3,101.4z M691,61.3c-25,0-42.8,18-42.8,38.6v27.3
		c0,22.9,16.9,38.8,42.8,38.8c14,0,24.2-4.9,31.4-11.9c3.4-3.4,6.2-7.4,8.5-11.4c1.3-2.1,0.6-4.5-0.6-5.1l-21-10.6
		c-1.3-0.6-2.5-0.2-3.2,1.7c-3,7.4-7.8,10.8-15,10.8c-7.8,0-13.4-5.3-13.4-12.1v-4.7c0-1.5,0.6-2.3,2.6-2.3h51.1
		c1.3,0,2.1-0.6,2.1-2.1V99.9C733.4,79.5,715.8,61.3,691,61.3z"/>
	<path id="Fill-12" class="st1" d="M635.5,64.7c-1.5-0.2-3.2-0.4-5.5-0.4c-8,0-15.7,3.8-19.1,8c-1.1,1-2.8,0.9-2.8-1v-4.9
		c0-1.5-0.6-2.1-2.1-2.1h-20.1c-1.3,0-2.1,0.6-2.1,2.1v94.3c0,1.5,0.8,2.1,2.1,2.1h25c1.3,0,2.1-0.6,2.1-2.1v-56.2
		c0-7.4,5.3-12.7,12.7-12.7c3.2,0,5.9,0.4,8.5,1.1c1.9,0.4,3.2-0.2,3.2-2.1V66.8C637.4,65.8,636.7,64.9,635.5,64.7"/>
	<path id="Fill-11" class="st1" d="M523.1,139.9h-7.8c-4.5,0-7-2.8-7-8.7c0-4.2,3-7.2,7.2-7.2h18c1.3,0,1.7,2.3,1.7,3
		C534.7,134.8,528.8,139.9,523.1,139.9z M522.5,62c-13.1,0-22.9,4.2-30.1,10.8c-4,3.6-7.2,7.8-9.7,12.5c-1.3,2.1-0.6,4.5,0.6,5.1
		l21,10.6c1.3,0.6,2.5,0.2,3.2-1.7c3-7.4,7.8-10.8,15-10.8c7.8,0,12.7,5.3,12.7,12.1v1.1c0,1.5-0.6,2.3-2.1,2.3h-18.7
		c-18.6,0-33.7,10.2-33.7,28v2.1c0,18,13.6,28.8,31.8,28.8h7.4c5.7,0,12.1-1.9,16.5-5.5c0.8-0.6,1.9-0.4,2.1,0.2l0.6,3.6
		c0.2,1.1,1.1,1.7,2.3,1.7h20.8c1.3,0,2.1-0.6,2.1-2.1v-60C564.4,77.9,548.3,62,522.5,62z"/>
	<path id="Fill-10" class="st1" d="M472.2,64.3h-25.6c-1.3,0-2.1,0.6-2.3,1.7l-9.5,39.8c-1.1,4.5-1.9,10.8-2.1,15.3H432
		c-0.2-4.5-1.1-10.2-2.3-15.3L420.1,66c-0.2-1.1-1.1-1.7-2.3-1.7h-21c-1.3,0-1.9,0.6-2.1,1.7l-9.3,39.6c-1.1,4.4-1.9,10.2-2.3,14.4
		h-0.6c-0.2-4.2-1-10-2.1-14.4L370.5,66c-0.2-1.1-0.8-1.7-2.1-1.7h-26.3c-1.9,0-2.6,1.1-1.9,2.8l29.9,94.3c0.4,1,1.1,1.5,2.1,1.5
		h18.7c1.3,0,1.9-0.4,2.1-1.5l11.7-43.9c1.3-4.9,2.3-13.1,2.3-13.1h0.6c0,0,1.1,8.3,2.3,13.1l11.4,43.6c0.2,1.1,0.8,1.7,2.1,1.7
		h18.4c1.1,0,1.7-0.4,2.1-1.5l30.3-94.3C474.8,65.6,474.1,64.3,472.2,64.3"/>
	<path id="Fill-9" class="st1" d="M329.3,64.3h-14.2c-1.9,0-2.5-0.6-2.5-2.1V48.8c0-1.5-0.4-1.9-1.9-1.9h-13.4
		c-0.8,0-1.9,0.4-2.5,1.1l-26.5,26.5v14.4c0,1.5,0.6,1.9,2.1,1.9H281c1.9,0,2.5,0.9,2.5,2.3v33.1c0,25.4,15.9,38.6,36,38.6h8.9
		c1.9,0,2.8-0.8,2.8-2.3v-21.8c0-1.3-0.6-2.1-2.1-2.1h-3.6c-8.7,0-12.9-5.3-12.9-14.4V93.1c0-1.5,0.6-2.3,2.5-2.3h14.2
		c1.5,0,1.9-0.4,1.9-1.9V66.4C331.2,64.9,330.8,64.3,329.3,64.3"/>
	<path id="Fill-8" class="st1" d="M266,28.3c-3.6-0.8-9.5-1.5-15-1.5c-31.4,0-43.2,21.8-43.2,39v5.3c0,1.5-0.6,2.1-2.3,2.1h-4.9
		c-1.3,0-2.1,0.6-2.1,2.1v22.3c0,1.5,0.8,2.1,2.1,2.1h4.9c1.9,0,2.3,0.6,2.3,2.1v58.9c0,1.5,0.6,2.1,2.1,2.1h25
		c1.5,0,2.1-0.6,2.1-2.1v-58.9c0-1.5,0.6-2.1,2.3-2.1H253c1.5,0,2.1-0.6,2.1-2.1V75.3c0-1.5-0.6-2.1-2.1-2.1h-13.8
		c-1.7,0-2.3-0.6-2.3-2.1v-5.7c0-7.4,5.3-12.1,13.3-12.1c2.8,0,5.7,0.4,8,1.1c1.5,0.4,2.3,0,2.8-1.3l6.6-21.8
		C268.1,29.8,267.7,28.7,266,28.3"/>
	<path id="Fill-7" class="st1" d="M156.4,127.4c0,6.8-5.5,12.3-12.9,12.3c-7.8,0-13.4-5.5-13.4-12.3V99.7c0-6.6,5.5-12.3,13.4-12.3
		c7.4,0,12.9,5.5,12.9,12.3V127.4z M143.5,62c-25.9,0-42.8,15.9-42.8,38.8v25.8c0,22.9,16.9,38.6,42.8,38.6
		c25.4,0,42.4-15.5,42.4-38.6v-25.8C185.9,77.6,168.9,62,143.5,62z"/>
	<path id="Fill-4" class="st1" d="M55.2,83.1C43.5,78.7,31,75.5,31,66c0-7.6,5.7-12.7,13.1-12.7h3.2c7.2,0,12.1,3.4,15.1,10.8
		c0.6,1.9,1.9,2.3,3.2,1.7l21-10.6c1.3-0.6,1.9-3,0.6-5.1c-1.7-3.2-3.8-6.3-6.4-9.1c-7.4-8.3-18-14.2-33.5-14.2h-3.2
		c-26.5,0-42.8,15.7-42.8,39.6c0,24.4,15.7,33.5,35.2,41.3c12.7,5.1,23.7,7.8,23.7,18.4c0,8.7-6.8,12.5-14.4,12.5h-5.3
		c-7.2,0-12.1-3.4-15-10.8c-0.6-1.9-1.9-2.3-3.2-1.7l-21,10.6c-1.3,0.6-1.9,3-0.6,5.1c1.9,3.4,4.2,6.8,7,9.8
		c7.2,8,17.8,13.5,32.8,13.5h6.8c26.9,0,42.6-15.5,42.6-39.4C89.9,101,75.3,91,55.2,83.1"/>
</g>
</svg>
